<?xml version="1.0" encoding="UTF-8"?><svg id="sales_club_positive_" xmlns="http://www.w3.org/2000/svg" viewBox="0 0 1920 434.01"><defs><style>.cls-1{fill:#0c0c0c;}.cls-2{fill:#fa0000;}</style></defs><path class="cls-2" d="M129.81,180.53c0-26.16,19.94-47.66,45.45-50.14v-43.58c-49.54,2.57-88.91,43.55-88.91,93.72s39.38,91.15,88.91,93.72v-43.58c-25.51-2.48-45.45-23.98-45.45-50.14Z"/><path class="cls-2" d="M274.05,253.63c0-49.51-38.34-90.03-86.94-93.57v43.67c24.55,3.37,43.47,24.42,43.47,49.9s-18.92,46.53-43.47,49.9v43.67c48.6-3.54,86.94-44.07,86.94-93.57Z"/><path class="cls-1" d="M425.65,303.92c-10.69,0-21.09-1.2-31.22-3.59-10.13-2.39-18.94-5.98-26.43-10.77-3.67-2.39-5.9-5.34-6.7-8.85-.8-3.51-.52-6.82.84-9.93,1.35-3.11,3.51-5.26,6.46-6.46,2.95-1.2,6.34-.6,10.17,1.79,7.02,4.15,14.43,7.18,22.25,9.09,7.81,1.91,16.03,2.87,24.64,2.87,12.6,0,21.77-2.11,27.51-6.34,5.74-4.22,8.61-9.69,8.61-16.39,0-5.58-2.03-9.97-6.1-13.16-4.07-3.19-11.04-5.82-20.93-7.89l-26.31-5.5c-29.98-6.38-44.97-21.77-44.97-46.17,0-10.53,2.79-19.7,8.37-27.51,5.58-7.81,13.31-13.88,23.2-18.18,9.89-4.31,21.29-6.46,34.21-6.46,9.57,0,18.66,1.2,27.27,3.59,8.61,2.39,16.35,5.9,23.21,10.53,3.19,2.24,5.1,4.99,5.74,8.25.64,3.27.24,6.3-1.2,9.09-1.43,2.79-3.71,4.71-6.82,5.74-3.11,1.04-6.74.36-10.88-2.03-5.9-3.35-11.88-5.74-17.94-7.18-6.06-1.43-12.6-2.15-19.61-2.15-11,0-19.62,2.31-25.84,6.94-6.22,4.63-9.33,10.69-9.33,18.18,0,5.74,1.91,10.33,5.74,13.76,3.83,3.43,10.36,6.1,19.61,8.01l26.08,5.5c15.79,3.35,27.55,8.61,35.28,15.79,7.73,7.18,11.6,16.75,11.6,28.71,0,10.05-2.71,18.9-8.13,26.55-5.42,7.65-13.12,13.6-23.08,17.82-9.97,4.22-21.73,6.34-35.28,6.34Z"/><path class="cls-1" d="M530.9,303.44c-5.59,0-9.57-1.91-11.96-5.74-2.39-3.83-2.31-8.45.24-13.88l63.15-139.94c2.07-4.62,4.58-7.93,7.54-9.93,2.95-1.99,6.34-2.99,10.17-2.99s6.98,1,9.93,2.99c2.95,1.99,5.46,5.3,7.54,9.93l63.39,139.94c2.55,5.59,2.71,10.25.48,13.99-2.24,3.74-6.06,5.62-11.48,5.62-4.47,0-7.93-1.08-10.4-3.23-2.48-2.15-4.66-5.46-6.58-9.93l-11.96-27.75h-82.29l-11.72,27.75c-2.08,4.63-4.23,7.98-6.46,10.05-2.24,2.07-5.42,3.11-9.57,3.11ZM599.56,166.13l-30.38,72.01h61.24l-30.38-72.01h-.48Z"/><path class="cls-1" d="M734.72,301.53c-10.37,0-15.55-5.26-15.55-15.79v-138.03c0-10.36,5.1-15.55,15.31-15.55s15.31,5.18,15.31,15.55v127.74h69.37c8.93,0,13.4,4.31,13.4,12.92s-4.47,13.16-13.4,13.16h-84.44Z"/><path class="cls-1" d="M881.83,301.53c-10.85,0-16.27-5.42-16.27-16.27v-136.11c0-10.84,5.42-16.27,16.27-16.27h85.4c8.29,0,12.44,3.99,12.44,11.96s-4.15,12.44-12.44,12.44h-72.24v46.41h66.98c8.29,0,12.44,4.07,12.44,12.2s-4.15,12.2-12.44,12.2h-66.98v49.04h72.24c8.29,0,12.44,4.07,12.44,12.2s-4.15,12.2-12.44,12.2h-85.4Z"/><path class="cls-1" d="M1076.08,303.92c-10.69,0-21.09-1.2-31.22-3.59-10.13-2.39-18.94-5.98-26.43-10.77-3.67-2.39-5.9-5.34-6.7-8.85-.8-3.51-.52-6.82.84-9.93,1.35-3.11,3.51-5.26,6.46-6.46,2.95-1.2,6.34-.6,10.17,1.79,7.02,4.15,14.43,7.18,22.25,9.09,7.81,1.91,16.03,2.87,24.64,2.87,12.6,0,21.77-2.11,27.51-6.34,5.74-4.22,8.61-9.69,8.61-16.39,0-5.58-2.03-9.97-6.1-13.16-4.07-3.19-11.04-5.82-20.93-7.89l-26.31-5.5c-29.98-6.38-44.97-21.77-44.97-46.17,0-10.53,2.79-19.7,8.37-27.51,5.58-7.81,13.31-13.88,23.2-18.18,9.89-4.31,21.29-6.46,34.21-6.46,9.57,0,18.66,1.2,27.27,3.59,8.61,2.39,16.35,5.9,23.21,10.53,3.19,2.24,5.1,4.99,5.74,8.25.64,3.27.24,6.3-1.2,9.09-1.43,2.79-3.71,4.71-6.82,5.74-3.11,1.04-6.74.36-10.88-2.03-5.9-3.35-11.88-5.74-17.94-7.18-6.06-1.43-12.6-2.15-19.61-2.15-11,0-19.62,2.31-25.84,6.94-6.22,4.63-9.33,10.69-9.33,18.18,0,5.74,1.91,10.33,5.74,13.76,3.83,3.43,10.36,6.1,19.61,8.01l26.08,5.5c15.79,3.35,27.55,8.61,35.28,15.79,7.73,7.18,11.6,16.75,11.6,28.71,0,10.05-2.71,18.9-8.13,26.55-5.42,7.65-13.12,13.6-23.08,17.82-9.97,4.22-21.73,6.34-35.28,6.34Z"/><path class="cls-1" d="M1262.91,304.16c-18.66,0-34.69-3.59-48.08-10.77-13.4-7.18-23.65-17.3-30.74-30.38-7.1-13.07-10.64-28.38-10.64-45.93s3.55-32.81,10.64-45.81c7.09-13,17.34-23.08,30.74-30.26,13.4-7.18,29.42-10.76,48.08-10.76,7.33,0,14.95.84,22.85,2.51,7.89,1.67,14.87,4.19,20.93,7.54,4.46,2.39,7.57,5.42,9.33,9.09,1.75,3.67,2.39,7.42,1.91,11.24-.48,3.83-1.88,7.26-4.19,10.29-2.31,3.03-5.23,5.07-8.73,6.1-3.51,1.04-7.34.52-11.48-1.56-9.41-4.62-19.06-6.94-28.94-6.94-14.83,0-26,4.19-33.49,12.56-7.5,8.37-11.24,20.38-11.24,36s3.74,27.87,11.24,36.24c7.49,8.37,18.66,12.56,33.49,12.56,4.15,0,8.61-.52,13.4-1.56,4.78-1.04,9.49-2.67,14.11-4.9,4.78-2.07,9.05-2.63,12.8-1.67,3.74.96,6.82,2.87,9.21,5.74,2.39,2.87,3.86,6.18,4.42,9.93.56,3.75.04,7.46-1.55,11.12-1.6,3.67-4.55,6.62-8.85,8.85-5.58,3.35-12.48,5.98-20.69,7.9-8.22,1.91-16.39,2.87-24.52,2.87Z"/><path class="cls-1" d="M1376.53,301.53c-7.18,0-12.68-1.95-16.51-5.86-3.83-3.91-5.74-9.37-5.74-16.39v-124.39c0-7.18,1.91-12.68,5.74-16.51,3.83-3.83,9.25-5.74,16.27-5.74s12.44,1.91,16.27,5.74c3.83,3.83,5.74,9.33,5.74,16.51v110.04h58.37c6.06,0,10.72,1.6,13.99,4.78,3.27,3.19,4.9,7.65,4.9,13.4s-1.64,10.45-4.9,13.63c-3.27,3.19-7.94,4.78-13.99,4.78h-80.14Z"/><path class="cls-1" d="M1573.89,304.16c-24.56,0-43.34-6.22-56.33-18.66-13-12.44-19.5-31.02-19.5-55.74v-76.79c0-7.18,1.91-12.68,5.74-16.51,3.83-3.83,9.25-5.74,16.27-5.74s12.44,1.91,16.27,5.74c3.83,3.83,5.74,9.33,5.74,16.51v77.27c0,12.28,2.71,21.53,8.13,27.75,5.42,6.22,13.32,9.33,23.68,9.33s18.02-3.11,23.44-9.33c5.42-6.22,8.14-15.47,8.14-27.75v-77.27c0-7.18,1.87-12.68,5.62-16.51,3.75-3.83,9.12-5.74,16.15-5.74s12.36,1.91,16.02,5.74c3.67,3.83,5.5,9.33,5.5,16.51v76.79c0,24.72-6.34,43.3-19.01,55.74-12.68,12.44-31.3,18.66-55.86,18.66Z"/><path class="cls-1" d="M1713.11,301.53c-15.31,0-22.96-7.57-22.96-22.73v-123.2c0-15.15,7.65-22.72,22.96-22.72h58.37c18.18,0,32.25,3.95,42.22,11.84,9.97,7.89,14.95,18.46,14.95,31.7,0,8.77-2.19,16.43-6.58,22.96-4.39,6.54-10.49,11.4-18.3,14.59,9.41,2.87,16.67,7.7,21.77,14.47,5.1,6.78,7.65,15.19,7.65,25.24,0,14.83-5.3,26.52-15.91,35.05-10.61,8.53-25.08,12.8-43.42,12.8h-60.76ZM1732.25,199.86h31.34c7.97,0,13.83-1.44,17.58-4.31,3.75-2.87,5.62-7.25,5.62-13.16s-1.88-10.24-5.62-13.04c-3.75-2.79-9.61-4.19-17.58-4.19h-31.34v34.69ZM1732.25,269.23h35.64c8.13,0,14.07-1.55,17.82-4.66,3.75-3.11,5.62-7.77,5.62-13.99s-1.88-10.84-5.62-13.88c-3.75-3.03-9.69-4.55-17.82-4.55h-35.64v37.08Z"/></svg>