<svg xmlns="http://www.w3.org/2000/svg" width="112" height="112" viewBox="0 0 112 112" fill="none"><g clip-path="url(#clip0_810_699)"><path d="M111.853 52.4632C110.084 23.2842 85.7685 0 56.0001 0C26.2317 0 1.91588 23.2842 0.147461 52.4632C0.147461 53.6421 0.294829 54.821 0.442198 56C1.62115 65.7263 5.30536 74.7158 10.9054 82.2316C21.0738 96.0842 37.4317 105.074 56.0001 105.074C30.0632 105.074 8.8422 84.8842 7.07378 59.5368C6.92641 58.3579 6.92641 57.1789 6.92641 56C6.92641 54.821 6.92641 53.6421 7.07378 52.4632C8.8422 27.1158 30.0632 6.92632 56.0001 6.92632C74.5685 6.92632 90.9264 15.9158 101.095 29.7684C106.695 37.2842 110.379 46.2737 111.558 56C111.705 57.1789 111.853 58.3579 111.853 59.3895C111.853 58.2105 112 57.0316 112 55.8526C112 54.8211 112 53.6421 111.853 52.4632Z" fill="white"></path><path d="M0.147368 59.5373C1.91579 88.7162 26.2316 112 56 112C85.7684 112 110.084 88.7162 111.853 59.5373C111.853 58.3583 111.705 57.1794 111.558 56.0004C110.379 46.2741 106.695 37.2847 101.095 29.7689C90.9263 15.9162 74.5684 6.92676 56 6.92676C81.9368 6.92676 103.158 27.1162 104.926 52.4636C105.074 53.6425 105.074 54.8215 105.074 56.0004C105.074 57.1794 105.074 58.3583 104.926 59.5373C103.158 85.032 81.9368 105.074 56 105.074C37.4316 105.074 21.0737 96.0847 10.9053 82.232C5.30526 74.7162 1.62105 65.7268 0.442105 56.0004C0.294737 54.8215 0.147368 53.6425 0.147368 52.611C0.147368 53.7899 0 54.9689 0 56.1478C0 57.1794 1.05406e-08 58.3583 0.147368 59.5373Z" fill="white"></path><path d="M49.0742 10.7578V26.2315H59.8321C62.4848 26.2315 64.5479 24.1684 64.5479 21.5157C64.5479 20.1894 63.9584 19.0104 63.0742 18.1262C63.6637 17.3893 64.1057 16.3578 64.2531 15.3262C64.2531 12.8209 62.19 10.7578 59.6847 10.7578H49.0742ZM52.611 13.9999H59.0952C59.832 13.9999 60.4217 14.5893 60.4217 15.3262C60.4217 16.063 59.832 16.6525 59.0952 16.6525H52.611V13.9999ZM52.611 19.8946H59.2426C60.1268 19.8946 60.7163 20.4841 60.7163 21.3683C60.7163 22.2525 60.1268 22.842 59.2426 22.842H52.611V19.8946Z" fill="white"></path><path d="M54.2316 29.1787L46.5684 44.6524H50.5474L51.7263 41.9999H60.4211L61.6 44.6524H65.5788L57.7684 29.1787H54.2316ZM56 33.1578L58.6525 38.7578H53.3474L56 33.1578Z" fill="white"></path><path d="M61.3051 48.042H65.7262L57.9156 58.063V63.5157H54.2314V58.063L46.4209 48.042H50.842L56.1472 55.1157L61.3051 48.042Z" fill="white"></path><path d="M86.6533 48.042V63.5157H90.3375V57.6211H93.1375L97.5587 63.5157H101.98L97.4112 57.4736C99.327 56.8841 100.801 55.1158 100.801 52.9052C100.801 50.2526 98.7376 48.042 96.0849 48.042H86.6533ZM90.4849 51.2841H95.7903C96.5271 51.2841 97.264 52.021 97.264 52.7578C97.264 53.4946 96.6745 54.2315 95.7903 54.2315H90.4849V51.2841Z" fill="white"></path><path d="M11.3477 48.042V63.5157H22.1056C24.7582 63.5157 26.8214 61.4525 26.8214 58.7999C26.8214 57.4736 26.2319 56.2946 25.3477 55.4104C25.9371 54.6735 26.3791 53.6419 26.5265 52.6104C26.5265 50.1051 24.4634 48.042 21.9581 48.042H11.3477ZM14.8844 51.2841H21.3686C22.1054 51.2841 22.6951 51.8735 22.6951 52.6104C22.6951 53.3472 22.1054 53.9366 21.3686 53.9366H14.8844V51.2841ZM14.8844 57.1787H21.516C22.4002 57.1787 22.9898 57.7682 22.9898 58.6525C22.9898 59.5367 22.4002 60.1262 21.516 60.1262H14.8844V57.1787Z" fill="white"></path><path d="M36.6955 48.042L29.0322 63.5157H33.0113L34.1901 60.8632H42.885L44.0639 63.5157H48.0427L40.2322 48.042H36.6955ZM38.4639 52.0211L41.1164 57.6211H35.8113L38.4639 52.0211Z" fill="white"></path><path d="M81.79 48.042V51.3681H71.4742V53.9712H81.4953V57.2973H71.4742V60.1896H81.79V63.5157H67.79V48.042H81.79Z" fill="white"></path><path d="M48.9268 86.0635V101.537H52.6109V95.6425H55.4109L59.8321 101.537H64.253L59.6847 95.4951C61.6005 94.9056 63.0742 93.1373 63.0742 90.9267C63.0742 88.2741 61.011 86.0635 58.3584 86.0635H48.9268ZM52.7584 89.3056H58.0637C58.8006 89.3056 59.5374 90.0425 59.5374 90.7793C59.5374 91.5161 58.9479 92.253 58.0637 92.253H52.7584V89.3056Z" fill="white"></path><path d="M63.0742 66.8711V70.1972H52.7584V72.8003H62.7795V76.1264H52.7584V79.0187H63.0742V82.3448H49.0742V66.8711H63.0742Z" fill="white"></path></g><defs><clipPath id="clip0_810_699"><rect width="112" height="112" fill="white"></rect></clipPath></defs></svg>