<svg xmlns="http://www.w3.org/2000/svg" width="194" height="61" viewBox="0 0 194 61" fill="none"><g clip-path="url(#clip0_791_343)"><path d="M135.902 4.68202C135.902 4.68202 132.265 6.1332 128.036 10.8061C123.806 15.4789 121.343 20.7335 123.166 22.1309C123.866 22.6621 125.481 22.7632 128.411 20.1075C131.115 17.7541 133.238 14.8039 134.612 11.489C136.505 6.86353 135.902 4.73893 135.902 4.68835M159.05 13.0887C154.35 10.6733 150.915 7.714 147.342 5.88343C143.932 4.12874 141.728 3.39525 138.971 3.76516C138.586 3.83387 138.207 3.92894 137.836 4.0497C137.836 4.0497 139.255 8.90909 133.606 17.0724C127.885 25.3494 122.693 25.2925 121.217 23.0193C119.671 20.6197 121.668 15.7287 125.002 11.3751C128.493 6.82243 134.625 3.04747 134.625 3.04747C134.625 3.04747 132.669 1.84922 127.869 4.57769C123.185 7.22711 115.123 13.5503 107.642 24.2144C100.16 34.8785 98.6779 40.7465 97.6055 45.3656C96.5331 49.9847 97.5077 54.9326 102.617 54.9326C107.727 54.9326 113.675 47.1202 115.353 44.4044C118.473 39.3459 120.507 31.5873 116.262 32.6527C114.171 33.1776 112.477 35.4982 111.408 37.7334C110.733 39.1691 110.217 40.6746 109.869 42.2229C108.385 42.8358 106.992 43.6484 105.727 44.6384C104.32 45.6829 103.006 46.8464 101.797 48.1161C101.797 48.1161 101.816 44.4234 104.753 38.448C107.689 32.4725 113.079 29.7441 116.132 29.488C118.883 29.2667 122.463 31.6062 119.428 40.2374C116.394 48.8686 107.443 59.362 98.0408 59.4916C89.364 59.6117 83.6866 48.5113 95.7635 29.1402C109.13 7.73929 124.809 1.17264 129.9 0.44231C134.991 -0.288021 136.646 1.96304 136.646 1.96304C139.711 0.702843 143.021 0.155861 146.326 0.36327C152.543 0.783763 157.35 5.1942 163.696 8.29257C162.046 9.87338 160.472 11.5332 159.053 13.0887M186.979 5.88343C182.671 8.653 176.709 11.1633 170.982 10.6258C169.531 12.1276 167.979 13.8665 166.424 15.7634C176.356 17.7331 185.058 11.5648 189.685 6.31341C191.372 4.42533 192.821 2.33674 194 0.0945335C191.893 2.29389 189.536 4.23691 186.976 5.88343M173.751 33.9332C173.826 33.8019 173.887 33.6631 173.934 33.519C173.904 33.291 173.798 33.08 173.632 32.9213C173.466 32.7625 173.251 32.6655 173.022 32.6464C172.076 32.6022 170.786 32.7824 167.402 36.5384C164.594 39.6401 162.178 43.0762 160.207 46.7693C158.271 50.3166 157.485 52.9597 158.599 53.6426C158.96 53.8305 159.38 53.8734 159.772 53.7628C160.526 53.5826 161.381 52.8744 162.68 51.3663C163.289 50.6581 163.964 49.6559 164.771 48.5461C167.011 45.492 172.637 35.8776 173.751 33.9332ZM138.596 38.018C139.16 36.5384 139.879 33.6328 138.384 32.4915C136.779 31.2806 132.685 34.1229 132.663 37.0379C132.635 40.0224 135.546 41.3724 136.243 41.5621C136.64 41.6696 136.779 41.6538 136.971 41.3345C137.589 40.2681 138.132 39.1599 138.596 38.018ZM135.498 43.4465C134.484 42.9769 133.537 42.3717 132.685 41.6475C131.83 40.9287 131.116 40.0572 130.578 39.0771C130.521 38.9823 130.465 39.055 130.401 39.1404C130.338 39.2257 130.086 39.4565 127.903 42.6624C125.721 45.8682 122.368 52.5108 125.402 53.6426C127.345 54.3666 130.578 50.9553 132.341 48.6947C133.542 47.1169 134.631 45.4561 135.599 43.7247C135.691 43.5318 135.599 43.4876 135.502 43.4465M169.919 51.1197C169.095 52.4412 168.156 54.9768 170.865 53.3992C174.18 51.4801 178.901 44.3001 178.901 44.3001H181.043C179.094 47.3035 176.925 50.1569 174.552 52.8364C171.193 56.5671 167.096 59.9564 164.21 59.6212C160.838 59.226 161.895 54.7903 161.895 54.7903C161.895 54.7903 157.072 59.9374 153.735 59.5675C149.228 59.0679 150.603 53.4846 150.603 53.4846C150.603 53.4846 145.506 59.754 142.034 59.5612C136.59 59.245 137.959 52.6056 139.473 47.9296C140.283 45.4288 141.034 43.4654 141.034 43.4654C141.034 43.4654 140.494 43.6077 139.334 43.7816C138.728 43.867 137.624 43.9302 137.624 43.9302C137.624 43.9302 135.356 47.9391 133.543 50.3482C131.729 52.7574 124.021 61.0629 119.485 59.3999C115.29 57.8634 116.678 51.4263 119.119 46.3109C122.683 38.8526 132.707 28.138 138.488 29.5544C144.481 31.0119 138.624 41.9731 138.624 41.9731C138.624 41.9731 138.624 42.0143 138.687 42.0427C138.807 42.087 139.119 42.1217 139.842 41.9795C140.59 41.8264 141.324 41.6074 142.034 41.325C142.034 41.325 148.058 28.6786 154.713 20.4047C161.368 12.1308 174.643 -2.11859 179.854 1.32756C181.116 2.17487 180.548 5.09303 178.832 8.63403C178.059 8.88566 177.274 9.09672 176.479 9.26635C177.627 7.17653 178.387 5.41551 178.614 4.18565C179.4 -0.0888398 169.442 8.92806 162.327 18.6152C158.041 24.4552 154.233 30.6331 150.941 37.0885C152.226 36.3026 153.453 35.4246 154.612 34.4612C157.786 31.8232 160.802 29.0003 163.645 26.007C166.383 23.1976 168.951 20.2267 171.335 17.1103C172.092 17.0736 172.847 16.9955 173.596 16.8763C170.997 20.413 168.162 23.7698 165.112 26.9239C162.273 29.801 159.201 32.8962 156.533 35.1441C154.149 37.1757 151.636 39.0483 149.007 40.7496C149.007 40.7496 142.784 53.3296 146.169 54.1358C148.159 54.6164 152.089 48.5493 152.089 48.5493C152.089 48.5493 157.217 40.7053 160.308 37.1675C164.525 32.3619 168.156 29.5797 171.783 29.5291C173.896 29.4911 175.142 31.7422 175.142 31.7422L176.135 30.1993H182.254C182.254 30.1993 170.827 49.6369 169.912 51.1007M186.976 5.88343C182.667 8.653 176.706 11.1633 170.978 10.6258C169.528 12.1276 167.976 13.8665 166.421 15.7634C176.353 17.7331 185.055 11.5648 189.682 6.31341C191.37 4.42551 192.82 2.33691 194 0.0945335C191.893 2.29389 189.536 4.23691 186.976 5.88343ZM101.043 15.4188H95.2242L91.9345 20.7461H97.7538L101.043 15.4188ZM73.4896 33.8668C75.9655 30.4649 82.7972 18.5425 82.7972 18.5425C82.7684 18.3148 82.6624 18.1039 82.4971 17.945C82.3318 17.7862 82.117 17.6891 81.8888 17.6699C80.9426 17.6256 79.3656 17.945 76.2336 21.8748C73.1016 25.8047 70.6698 28.9315 68.8973 32.1848C66.9544 35.7353 66.1059 38.2393 67.2225 38.919C67.5848 39.101 68.001 39.1437 68.3926 39.0392C69.118 38.8558 70.0674 38.1255 71.37 36.6237C71.9819 35.9218 72.6758 34.9765 73.4896 33.8668ZM42.2644 17.7426C40.6558 16.5254 36.565 19.374 36.5429 22.2827C36.5177 25.2704 40.2237 26.1841 40.7031 26.2062C40.8441 26.218 40.9855 26.1883 41.11 26.1209C41.1955 26.0709 41.2637 25.9958 41.3055 25.9059C41.7413 25.0476 42.1329 24.1675 42.4788 23.2691C43.0434 21.7895 43.7594 18.884 42.2644 17.7426ZM39.8389 28.0273C38.7297 27.68 37.6697 27.1912 36.6848 26.573C35.7305 25.9493 34.9544 25.0875 34.4328 24.0721C34.3761 23.9773 34.313 24.05 34.2562 24.1354C34.1994 24.2207 33.8714 24.6317 31.6825 27.8503C29.4936 31.0688 26.2512 37.6512 29.2886 38.7831C31.2251 39.5197 34.4959 36.0799 36.2716 33.8289C37.6005 32.0599 38.8283 30.2168 39.9493 28.3087C40.0218 28.1158 39.9493 28.0716 39.842 28.0368M87.3674 30.0096H89.4996C89.4996 30.0096 78.8168 45.5015 72.7831 44.7807C69.4145 44.3855 70.4144 40.2185 70.4144 40.2185C70.4144 40.2185 65.6833 45.7702 61.337 44.6447C57.3944 43.6298 59.9397 37.0569 59.9397 37.0569C59.4918 37.2371 50.9601 46.8768 44.9642 44.5657C38.6908 42.1376 41.949 34.066 43.1412 31.6379C44.1536 29.5923 45.2733 27.6005 45.2733 27.6005C45.2733 27.6005 44.3113 27.8724 43.6963 28.0115C43.0813 28.1506 42.1918 28.3277 42.1918 28.3277C42.1918 28.3277 39.2238 33.1618 37.4103 35.5741C35.5967 37.9864 27.8881 46.2761 23.3463 44.6257C18.8045 42.9754 19.9305 36.6047 22.4821 31.5462C26.6202 23.3418 36.4388 13.2595 42.3527 14.7897C48.3265 16.3167 43.3809 26.0292 43.3809 26.0292C43.3809 26.0292 44.57 26.1841 47.4181 24.2365C51.5184 21.4322 56.9307 13.8886 62.791 14.7739C65.554 15.1912 68.1277 18.0208 64.6077 23.3956C63.4849 25.1218 61.6019 26.6647 60.1605 25.1376C59.2616 24.1891 60.047 22.4597 60.99 21.2773C61.3571 20.7953 61.8367 20.4111 62.3867 20.1586C62.9367 19.9061 63.5402 19.793 64.1441 19.8293C64.1441 19.8293 65.1124 17.6161 62.6491 17.6478C60.6557 17.6857 55.6092 22.3427 52.7611 27.0472C50.1495 31.366 46.1912 38.723 50.1653 40.326C53.8082 41.7993 60.7409 33.5506 63.9517 29.2287C67.1625 24.9068 74.4799 15.1122 80.6177 14.7201C82.731 14.581 83.9894 16.5127 83.9894 16.5127L84.6991 15.3872H90.8369C90.8369 15.3872 79.2773 34.7236 78.3752 36.1874C77.6655 37.3319 76.7225 39.9055 79.3214 38.4638C81.9204 37.0221 87.3674 30.0096 87.3674 30.0096ZM84.0273 60.9934C79.508 57.8575 74.0964 56.2745 68.6039 56.4818C67.1173 56.5224 65.6612 56.9137 64.3536 57.624C63.0461 58.3342 61.924 59.3434 61.0783 60.5697C58.738 56.4754 54.111 53.962 46.9576 54.0189C35.398 54.1517 23.933 59.4948 14.8493 59.4884C6.14405 59.4884 -0.205071 54.0031 -5.69911e-05 44.2622C0.381584 27.1674 14.7925 11.7735 25.5478 4.84643C31.7487 0.865965 36.934 -0.316475 40.3246 0.0660791C42.7974 0.341139 45.7717 3.20555 43.895 7.42629C41.1384 13.5946 37.3314 13.0887 37.4733 10.139C37.5522 8.21986 38.8264 7.01212 39.7853 6.34503C40.394 5.92453 41.4695 5.80439 42.031 5.79175C42.5766 5.33015 42.9772 1.95356 38.5615 3.06328C34.1458 4.173 28.7839 8.53602 23.6933 14.1732C18.6026 19.8103 10.6764 30.4649 8.71777 41.6538C7.80309 46.842 8.40236 56.3047 20.6748 56.1972C31.0832 56.1118 46.4246 49.2417 60.5232 49.384C65.9955 49.4377 70.7582 50.9173 74.4705 53.2127C78.1166 55.4637 82.4881 58.7518 84.0399 60.9965" fill="white"></path></g><defs><clipPath id="clip0_791_343"><rect width="194" height="61" fill="white"></rect></clipPath></defs></svg>