<svg xmlns="http://www.w3.org/2000/svg" width="171" height="73" viewBox="0 0 171 73" fill="none"><path d="M147.104 31.8855C144.246 32.555 136.698 32.9269 136.698 32.9269L135.77 35.9518C135.77 35.9518 139.507 35.6295 142.243 35.9022C142.243 35.9022 143.122 35.8278 143.22 36.894C143.269 37.9849 143.147 39.1254 143.147 39.1254C143.147 39.1254 143.074 39.7949 142.17 39.9685C141.119 40.142 134.036 40.4643 134.036 40.4643L132.888 44.3818C132.888 44.3818 132.472 45.2744 133.425 45.0265C134.304 44.7785 141.73 43.3405 142.707 43.5388C143.733 43.7868 144.906 45.2248 144.564 46.5141C144.173 48.0762 136.747 52.8863 132.252 52.564C132.252 52.564 129.883 52.7127 127.905 49.4647C125.999 46.3654 128.564 40.5387 128.564 40.5387C128.564 40.5387 127.416 37.8113 128.271 36.8196C128.271 36.8196 128.759 36.3981 130.225 36.2741L132.057 32.4558C132.057 32.4558 129.981 32.5798 128.759 31.0425C127.636 29.5548 127.538 28.9102 128.418 28.5135C129.346 28.0176 137.944 26.4556 143.855 26.6539C143.855 26.6539 145.931 26.406 147.763 30.0507C147.763 30.0507 148.594 31.5384 147.128 31.8855M124.827 46.5637C124.094 48.3737 122.067 50.2829 119.624 49.1175C117.132 47.9274 113.2 39.7949 113.2 39.7949C113.2 39.7949 111.734 36.77 111.441 36.8692C111.441 36.8692 111.123 36.2741 110.952 39.5965C110.708 42.8942 111.001 49.3159 109.658 50.3325C108.436 51.3242 106.971 50.9027 106.14 49.7374C105.456 48.5721 105.163 45.7703 105.554 40.8858C105.994 36.0014 107.093 30.7946 108.485 29.1829C109.951 27.5465 111.123 28.7366 111.563 29.1829C111.563 29.1829 113.444 30.9185 116.619 36.051L117.157 36.9931C117.157 36.9931 120.039 41.8776 120.332 41.8528C120.332 41.8528 120.577 42.1008 120.772 41.9024C121.065 41.828 120.967 40.2412 120.967 40.2412C120.967 40.2412 120.43 34.96 117.743 26.0341C117.743 26.0341 117.352 24.8935 117.621 23.8026C117.865 22.8108 118.916 23.3067 118.916 23.3067C118.916 23.3067 122.97 25.2902 124.949 31.9847C126.903 38.6791 125.584 44.7538 124.851 46.5637M104.943 29.3813C104.553 30.0755 104.382 31.0425 102.696 31.3152C102.696 31.3152 86.3303 32.4806 85.5242 33.6459C85.5242 33.6459 84.9868 34.3401 85.8662 34.5137C86.7944 34.7121 90.5073 35.2079 92.266 35.3071C94.1713 35.3071 100.571 35.3567 102.916 38.2824C102.916 38.2824 104.259 39.6709 104.211 42.8198C104.162 46.0431 103.6 47.1836 102.354 48.3489C101.06 49.4399 89.9699 54.4979 82.8129 46.7621C82.8129 46.7621 79.5397 43.0429 83.9609 40.2164C83.9609 40.2164 87.1364 38.2329 95.2705 40.5387C95.2705 40.5387 97.7131 41.4313 97.6154 42.3487C97.4689 43.3405 95.588 44.3322 92.8522 44.2827C90.2141 44.2083 88.26 42.919 88.6508 43.1421C89.0172 43.2661 85.7929 41.5553 84.7914 42.7206C83.8144 43.8116 84.0586 44.4562 85.0357 45.1257C87.4784 46.5637 97.078 46.0431 99.936 42.795C99.936 42.795 101.084 41.4809 99.3497 40.4147C97.6399 39.423 92.6568 38.8031 90.7271 38.7287C88.8951 38.6296 82.0312 38.7287 81.0053 36.9188C81.0053 36.9188 80.0282 35.6295 81.103 32.1087C82.2266 28.3895 90.2141 26.9514 93.6827 26.6539C93.6827 26.6539 103.209 26.2572 104.992 28.2408C104.992 28.2408 105.237 28.687 104.943 29.3565M77.9275 51.1755C76.7795 52.0433 74.3368 51.6714 73.6284 50.6796C72.9445 49.8118 72.7002 46.3902 72.8223 41.0098C72.9933 35.5055 73.0666 28.7614 74.2879 27.6705C75.5093 26.6043 76.2421 27.5465 76.7306 28.2655C77.2191 29.0094 77.8542 29.8276 77.9519 31.5384C78.0985 33.274 78.5138 42.1999 78.5138 42.1999C78.5138 42.1999 79.0511 50.3325 77.9519 51.1755M80.3702 22.1661C76.9993 23.3315 74.7032 22.9596 72.7491 22.0918C71.8941 23.6538 71.3812 24.1249 70.7461 24.2241C69.769 24.3233 68.9141 22.7364 68.7919 22.2405C68.5965 21.8686 68.1324 21.1992 68.6942 19.6867C66.7889 17.9511 66.6424 15.6205 66.9844 14.0584C67.424 12.2236 70.6484 5.33082 80.419 4.51261C80.419 4.51261 85.2067 4.16549 86.0372 6.7441H86.1837C86.1837 6.7441 90.8248 6.7441 90.7271 10.9591C90.7271 15.1742 85.5975 20.4305 80.3702 22.2405M84.7181 10.1657C81.6404 10.6616 76.9016 14.827 74.6299 18.2734C78.1229 18.9181 84.2296 18.6702 86.9654 13.0666C86.9654 13.0666 88.26 9.54585 84.7181 10.1657ZM71.2102 12.8931C70.2331 14.5047 70.1843 15.4717 70.6484 16.1163C71.7964 14.3807 73.8238 11.6534 76.8772 9.52106C74.5322 9.769 72.5536 10.7608 71.2102 12.8931ZM154.432 51.0019C152.185 56.6054 150.279 62.2833 149.18 70.7878C149.18 70.7878 148.936 72.449 147.592 71.9035C146.249 71.4076 144.051 69.1761 143.562 66.0273C143.074 61.9114 144.881 54.969 148.57 46.9852C147.495 45.2496 146.738 42.671 147.348 39.0511C147.348 39.0511 148.325 32.3566 154.92 26.3068C154.92 26.3068 155.702 25.6374 156.142 25.8605C156.679 26.1084 156.459 28.2408 156.02 29.3317C155.629 30.3731 152.698 35.5303 152.698 35.5303C152.698 35.5303 150.866 39.0511 151.379 41.8032C154.847 36.3981 162.737 25.439 167.622 28.9102C170.725 31.1417 170.725 38.332 168.404 42.4975C166.572 45.7951 161.394 52.6135 154.481 51.0267M164.642 34.1666C162.835 36.1501 159.61 39.9189 157.07 45.0265C159.757 44.729 162.371 43.2165 163.177 42.4479C164.471 41.2825 167.451 38.1337 166.987 33.9682C166.987 33.9682 166.694 31.7863 164.642 34.1666ZM55.2107 53.9276C46.5636 56.6054 38.4051 55.3657 33.9595 54.1756C33.8373 56.0104 33.6419 56.779 33.3488 57.0765C33.0068 57.4732 30.1733 59.1096 28.61 56.779C27.9261 55.6632 27.5841 53.6549 27.3887 51.8201C17.3737 47.2084 12.7327 40.4147 12.5861 40.1668C12.3418 39.9189 10.0701 37.5138 12.3418 34.5385C14.467 31.8607 21.5018 29.1581 27.8039 28.092C28.0482 22.6372 28.6344 18.4222 29.3917 16.5626C30.2955 14.3312 31.4435 16.3147 32.4694 17.8024C33.2999 18.9181 33.8129 23.7034 33.8618 27.5217C37.9654 27.3234 40.457 27.6209 45.0248 28.5135C51.0337 29.5548 55.0397 32.6789 54.7222 36.1997C54.429 39.6709 51.3024 41.109 50.0811 41.2082C48.8597 41.3073 46.9056 40.39 46.9056 40.39C45.5377 39.7453 46.7835 39.1502 48.3712 38.456C50.1299 37.5882 49.7391 36.7204 49.7391 36.7204C49.104 34.7369 41.3119 33.4228 33.5686 33.4228C33.5686 37.7618 33.7396 44.9521 33.8618 49.1423C39.2845 50.1837 43.3393 49.9606 43.3393 49.9606C43.3393 49.9606 63.1249 49.3903 63.6868 36.5716C64.2974 23.7282 43.9011 11.4302 28.8787 7.56231C13.8807 3.57043 5.38022 6.39698 4.64742 6.76889C3.84134 7.1656 4.57414 7.31437 4.57414 7.31437C4.57414 7.31437 5.38022 7.43834 6.84582 7.93422C8.31142 8.43011 7.13894 9.17394 7.13894 9.17394C4.57414 10.0665 1.71621 9.54585 1.1544 8.35573C0.592586 7.1904 1.5208 6.12424 2.62 4.5622C3.64592 2.95057 4.81841 3.00016 4.81841 3.00016C23.3827 -3.57033 46.0507 8.20696 46.0507 8.20696C67.253 19.0669 70.8682 31.8359 70.4774 36.7948C70.1354 41.6793 68.279 49.9358 55.2107 53.9524M14.4181 36.1997C12.3174 37.1915 13.783 38.7783 13.783 38.7783C17.7401 43.0677 22.5766 45.7703 27.2177 47.4563C27.7551 40.018 27.7062 37.3651 27.7062 33.6211C20.5248 34.117 16.3722 35.3071 14.4181 36.1997Z" fill="white"></path></svg>