<svg xmlns="http://www.w3.org/2000/svg" width="180" height="61" viewBox="0 0 180 61" fill="none"><path d="M76.5993 31.2823C76.5993 39.7494 69.9883 45.9886 61.875 45.9886C53.7618 45.9886 47.1508 39.7494 47.1508 31.2823C47.1508 22.7555 53.7618 16.576 61.875 16.576C69.9883 16.576 76.5993 22.7555 76.5993 31.2823ZM70.1537 31.2823C70.1537 25.9912 66.3221 22.371 61.875 22.371C57.428 22.371 53.5964 25.9912 53.5964 31.2823C53.5964 36.5203 57.428 40.1936 61.875 40.1936C66.3221 40.1936 70.1537 36.5137 70.1537 31.2823ZM108.364 31.2823C108.364 39.7494 101.753 45.9886 93.6398 45.9886C85.5265 45.9886 78.9155 39.7494 78.9155 31.2823C78.9155 22.7622 85.5265 16.576 93.6398 16.576C101.753 16.576 108.364 22.7555 108.364 31.2823ZM101.918 31.2823C101.918 25.9912 98.0868 22.371 93.6398 22.371C89.1927 22.371 85.3611 25.9912 85.3611 31.2823C85.3611 36.5203 89.1927 40.1936 93.6398 40.1936C98.0868 40.1936 101.918 36.5137 101.918 31.2823ZM138.805 17.4645V43.8669C138.805 54.7275 132.413 59.1633 124.855 59.1633C117.741 59.1633 113.46 54.396 111.845 50.4973L117.457 48.1567C118.456 50.5503 120.904 53.3749 124.849 53.3749C129.686 53.3749 132.684 50.3846 132.684 44.7553V42.6402H132.459C131.016 44.4238 128.237 45.982 124.729 45.982C117.39 45.982 110.667 39.577 110.667 31.3353C110.667 23.034 117.39 16.576 124.729 16.576C128.23 16.576 131.01 18.1341 132.459 19.8647H132.684V17.4711H138.805V17.4645ZM133.14 31.3353C133.14 26.157 129.693 22.371 125.305 22.371C120.858 22.371 117.132 26.157 117.132 31.3353C117.132 36.4607 120.858 40.1936 125.305 40.1936C129.693 40.1936 133.14 36.4607 133.14 31.3353ZM148.897 1.98902V45.0869H142.61V1.98902H148.897ZM173.396 36.1225L178.399 39.4642C176.784 41.8578 172.893 45.982 166.169 45.982C157.831 45.982 151.604 39.5239 151.604 31.2757C151.604 22.5301 157.884 16.5694 165.448 16.5694C173.065 16.5694 176.79 22.6428 178.008 25.9249L178.677 27.5958L159.055 35.7379C160.557 38.6885 162.893 40.1936 166.169 40.1936C169.452 40.1936 171.728 38.5758 173.396 36.1225ZM157.996 30.8314L171.113 25.3746C170.391 23.5379 168.221 22.2583 165.666 22.2583C162.39 22.2583 157.831 25.1558 157.996 30.8314ZM23.3537 27.4565V21.2173H44.3383C44.5434 22.3047 44.6493 23.591 44.6493 24.9834C44.6493 29.6645 43.3721 35.4528 39.2559 39.577C35.2523 43.7541 30.1368 45.982 23.3603 45.982C10.8 45.982 0.238281 35.7313 0.238281 23.1467C0.238281 10.5622 10.8 0.311523 23.3603 0.311523C30.3089 0.311523 35.2589 3.04326 38.978 6.60381L34.5839 11.0064C31.917 8.50011 28.3037 6.55076 23.3537 6.55076C14.1817 6.55076 7.00813 13.957 7.00813 23.1467C7.00813 32.3365 14.1817 39.7427 23.3537 39.7427C29.303 39.7427 32.6912 37.3491 34.8618 35.1743C36.6221 33.4107 37.7802 30.8911 38.2368 27.4499L23.3537 27.4565Z" fill="white"></path></svg>