<svg xmlns="http://www.w3.org/2000/svg" width="119" height="63" viewBox="0 0 119 63" fill="none"><g clip-path="url(#clip0_791_395)"><path d="M0 36.1676H9.05656L14.0892 11.0901H5.03142L0 36.1676ZM5.53042 8.09912H14.6249L16.1195 0.596063H7.02858L5.53042 8.09912ZM12.5792 43.2242H21.6369L27.1709 16.1306H33.9636L34.9651 11.0901H28.3028L28.5553 9.95618C28.9322 7.81889 29.6872 5.4192 33.0829 5.4192C35.0979 5.4192 36.9836 5.54506 38.8694 6.42729L39.8768 1.13513C37.7753 0.392279 35.564 0.00855609 33.3354 0C26.039 0 21.0087 4.28525 19.1206 11.0901H15.9761L14.9698 16.1306H18.1143L12.5792 43.2242Z" fill="white"></path><path d="M41.2602 36.6726C51.9525 36.6726 59.3746 26.9682 59.3746 19.0293C59.3746 13.1067 53.965 10.5859 48.6823 10.5859C36.9803 10.5859 30.568 21.0514 30.568 28.2292C30.568 34.1518 36.1032 36.6726 41.2602 36.6726ZM69.9435 36.6726C80.6357 36.6726 88.0578 26.9682 88.0578 19.0293C88.0578 13.1067 82.5227 10.5859 77.2388 10.5859C65.5403 10.5859 59.1256 21.0455 59.1256 28.2292C59.1256 34.1518 64.7864 36.6726 69.9435 36.6726ZM102.775 36.168H111.706L119 0.509766H109.944L107.804 11.0953L104.03 10.7177C95.2251 10.7177 87.1748 22.0583 87.1748 30.1242C87.1748 33.4002 89.3083 36.6774 92.9612 36.6774C98.1183 36.6774 101.767 34.1566 103.273 31.6357H103.776L102.775 36.168ZM74.8469 54.9452C67.817 60.7803 58.7877 63.6295 49.6886 62.884C37.7377 62.1277 29.1836 52.9278 27.6748 43.2246H28.1774C30.9449 49.2802 37.612 54.9452 45.7891 55.8262C54.0859 56.8343 64.0291 53.0549 69.4374 47.8874L63.3997 43.2246H81.6396L77.6098 62.6323L74.9678 55.0711L74.8469 54.9452Z" fill="white"></path></g><defs><clipPath id="clip0_791_395"><rect width="119" height="63" fill="white"></rect></clipPath></defs></svg>