<svg xmlns="http://www.w3.org/2000/svg" width="123" height="55" viewBox="0 0 123 55" fill="none"><path fill-rule="evenodd" clip-rule="evenodd" d="M115.696 3.20133C115.695 2.78096 115.777 2.36456 115.937 1.976C116.098 1.58744 116.333 1.23435 116.63 0.93696C116.927 0.639573 117.28 0.403733 117.669 0.242953C118.057 0.0821737 118.473 -0.000385797 118.894 5.52106e-06C119.315 -0.000776303 119.731 0.0814834 120.12 0.24207C120.509 0.402656 120.862 0.638413 121.16 0.935819C121.457 1.23323 121.693 1.58644 121.854 1.9752C122.015 2.36396 122.097 2.78064 122.097 3.20133C122.097 3.62204 122.015 4.03877 121.854 4.42758C121.694 4.81639 121.458 5.16963 121.16 5.46702C120.863 5.7644 120.509 6.00008 120.12 6.16052C119.731 6.32095 119.315 6.40299 118.894 6.40191C118.473 6.4026 118.057 6.32026 117.669 6.15963C117.28 5.999 116.927 5.76324 116.63 5.46588C116.333 5.16851 116.097 4.81539 115.937 4.42678C115.777 4.03817 115.695 3.62172 115.696 3.20133ZM118.895 0.635373C120.319 0.636116 121.476 1.78215 121.472 3.20578C121.476 4.62942 120.315 5.77916 118.895 5.77916C118.558 5.77868 118.224 5.71171 117.913 5.58208C117.601 5.45246 117.318 5.26272 117.08 5.02372C116.842 4.78472 116.654 4.50115 116.525 4.18921C116.397 3.87727 116.331 3.5431 116.332 3.20578C116.331 2.86845 116.396 2.53415 116.524 2.22211C116.653 1.91008 116.841 1.62646 117.079 1.38758C117.318 1.1487 117.601 0.959267 117.912 0.830175C118.224 0.701082 118.558 0.634881 118.895 0.635373ZM120.142 4.20559L120.524 4.87362L119.695 4.87881L119.43 4.33697C119.312 4.09975 119.159 3.88117 118.978 3.68825C118.847 3.55241 118.728 3.51827 118.433 3.51827L118.311 3.51901L118.31 4.87733H117.626V1.5617H119.278C119.989 1.5617 120.323 1.9588 120.323 2.48432C120.325 2.98533 119.986 3.34533 119.427 3.41213L119.428 3.43069C119.713 3.5294 119.807 3.62218 120.142 4.20559ZM118.309 2.07682V2.98756H119.001C119.465 2.98756 119.618 2.76192 119.611 2.52737C119.611 2.23492 119.379 2.0746 118.927 2.0746L118.309 2.07682ZM86.5629 9.99217C89.7902 6.16959 94.5659 3.43143 101.472 3.43143C113.426 3.43143 116.553 11.2473 116.161 18.6327C115.929 23.0714 114.504 28.3591 113.44 31.5219C108.712 45.5734 103.033 54.4589 90.1109 54.4574C84.2137 54.4589 78.8168 52.1579 76.6903 46.3609C72.8061 51.2761 66.8696 54.4841 60.101 54.5175C54.9275 54.5427 50.9045 52.7146 48.3475 49.5741C45.3117 52.9246 40.1746 54.4589 35.0686 54.4604C30.4815 54.4574 26.6515 52.8593 24.1375 50.1293C21.3363 52.9543 16.9347 54.4537 11.3285 54.3223C4.14724 54.1501 0.135382 49.8413 0.00326185 43.8603C-0.194177 34.6015 8.62375 15.487 12.2585 9.6834C14.7674 5.56614 18.2522 3.54499 22.8801 3.54277C25.4209 3.54499 28.0299 3.98663 29.6428 5.69529C30.9692 7.09814 31.1822 8.34512 31.2802 10.7055C35.3477 4.15141 42.2031 3.26071 48.493 3.26219C53.3057 3.26219 57.3005 5.06363 58.9765 7.78695C62.2023 5.04508 66.8481 3.30525 72.4209 3.30525C78.1251 3.30599 82.3744 4.6977 85.0198 7.69046C85.6032 8.34735 86.0181 8.84911 86.5629 9.99217ZM23.638 42.2541C23.8503 40.0154 22.1735 37.5979 15.4836 38.7588C16.1479 37.2706 17.1359 35.2309 18.2574 32.9151C21.8514 25.4941 26.8178 15.2391 26.9113 11.2273C26.9618 9.24918 26.1646 7.5999 22.9566 7.60139C19.5675 7.5999 17.4417 9.0176 15.7004 11.8782C11.9238 17.909 3.90378 36.1016 4.07227 43.9649C4.16728 48.46 7.65215 50.234 11.5245 50.3245C16.8612 50.4485 23.0086 48.9499 23.6387 42.2533L23.638 42.2541ZM37.2583 32.5825C36.8129 33.7805 35.9757 36.2893 35.2995 38.9444C37.495 38.3966 39.1391 38.0173 41.9574 38.0826C45.1706 38.1613 47.2267 39.4914 47.2252 42.1501C47.2252 48.5884 40.1048 50.4797 35.1711 50.4812C29.7482 50.4812 24.9844 47.3971 24.9844 41.4673C24.9844 34.5154 28.7521 23.9739 32.2882 16.956C36.6288 8.33399 41.0667 7.1887 48.7067 7.1887C52.0661 7.1887 55.9333 8.62272 55.9333 11.7936C55.9333 16.1892 52.2161 17.8652 48.5234 18.0775C46.9446 18.1681 44.5197 18.2549 43.0693 18.151C43.0693 18.151 41.8365 20.0252 40.5338 23.3579C47.3684 22.3959 50.2692 23.948 49.1157 27.9004C47.554 33.2439 42.9239 33.5965 37.2575 32.5818L37.2583 32.5825ZM66.9215 18.3952C67.8234 17.1311 69.0295 15.9606 70.88 15.9606C73.1475 15.9606 72.9278 17.1601 72.3897 18.6928C70.8614 23.0573 75.4767 23.1723 76.6034 23.0832C80.6324 22.7693 82.8524 20.1662 83.3987 15.732C84.1469 9.69453 79.0603 7.37648 72.6124 7.37648C61.8646 7.37648 57.6456 13.9499 53.6212 23.3467C51.7306 27.7609 49.3495 35.3044 49.3503 40.1082C49.3495 46.8553 53.4549 50.5138 60.0713 50.5138C69.7332 50.5138 76.5604 42.8093 78.511 33.2097C79.1115 30.2556 79.8515 24.7117 72.3474 25.0205C68.5382 25.1779 66.2401 26.0181 65.0288 29.9104C63.7818 33.9201 68.3043 34.0292 68.3043 34.0292C67.3943 38.1747 64.7304 40.6879 62.3567 40.6901C60.8752 40.6901 59.5272 40.0474 59.9785 36.9121C60.6488 32.328 64.942 21.1779 66.9215 18.3952ZM111.469 23.893C110.329 29.549 107.776 36.2441 105.001 41.2327C100.473 49.3708 94.9815 50.5108 90.1799 50.45C85.3813 50.3928 79.971 48.6233 79.9302 41.2171C79.9013 35.9026 82.1926 28.397 84.1395 23.4826C87.5353 14.5681 90.9986 7.29781 101.961 7.4277C114.741 7.57689 112.462 18.9444 111.469 23.893ZM95.438 38.3944C97.215 35.3845 102.217 21.7323 102.354 18.3187C102.394 17.3241 102.23 16.1662 100.626 16.1476C99.5271 16.1321 98.5711 16.3451 97.7115 17.673C95.7802 20.1833 90.1265 35.6243 90.2222 38.7046C90.2571 39.8121 90.8754 40.7792 92.2352 40.7792C93.8014 40.7807 94.6691 39.7029 95.438 38.3944Z" fill="white"></path></svg>