<svg xmlns="http://www.w3.org/2000/svg" width="149" height="56" viewBox="0 0 149 56" fill="none"><path fill-rule="evenodd" clip-rule="evenodd" d="M8.4209 7.84961H21.0944L28.2582 32.1901H28.3683L35.6422 7.84961H47.9863V47.4876H39.8303V19.4621H39.7202L31.8952 47.4876H24.4011L16.687 19.4621H16.5761V47.4876H8.4209V7.84961Z" fill="white"></path><path fill-rule="evenodd" clip-rule="evenodd" d="M118.591 7.84961H126.747V15.6658H118.591V7.84961Z" fill="white"></path><path fill-rule="evenodd" clip-rule="evenodd" d="M118.591 18.457H126.747V47.4878H118.591V18.457Z" fill="white"></path><path fill-rule="evenodd" clip-rule="evenodd" d="M131.266 7.84961H139.422V47.4876H131.266V7.84961Z" fill="white"></path><path fill-rule="evenodd" clip-rule="evenodd" d="M51.002 32.9723C51.002 24.485 57.7933 17.6045 66.1702 17.6045C74.547 17.6045 81.3381 24.485 81.3381 32.9723C81.3381 41.4595 74.547 48.3402 66.1702 48.3402C57.7933 48.3402 51.002 41.4595 51.002 32.9723ZM66.1551 40.0266C69.9949 40.0266 73.1078 36.873 73.1078 32.9817C73.1078 29.0909 69.9949 25.9371 66.1551 25.9371C62.3146 25.9371 59.2017 29.0909 59.2017 32.9817C59.2017 36.873 62.3146 40.0266 66.1551 40.0266Z" fill="white"></path><path fill-rule="evenodd" clip-rule="evenodd" d="M84.7578 47.4876V7.84961H92.9134V20.6903C95.1724 18.7357 97.7625 17.787 100.738 17.787C109.003 17.787 115.176 24.8768 115.176 33.0278C115.176 41.1795 108.949 48.1571 100.738 48.1571C97.6521 48.1571 95.0072 47.2647 92.9134 44.9198V47.4876H84.7578ZM99.9558 40.0266C103.796 40.0266 106.909 36.8729 106.909 32.9817C106.909 29.0908 103.796 25.937 99.9558 25.937C96.1158 25.937 93.003 29.0908 93.003 32.9817C93.003 36.8729 96.1158 40.0266 99.9558 40.0266Z" fill="white"></path><path fill-rule="evenodd" clip-rule="evenodd" d="M140.044 10.1106C140.044 11.2861 140.972 12.1669 142.078 12.1669C143.178 12.1669 144.101 11.2861 144.101 10.1106C144.101 8.95805 143.178 8.07812 142.078 8.07812C140.972 8.07812 140.044 8.95805 140.044 10.1106ZM140.41 10.1106C140.41 9.13294 141.134 8.37902 142.078 8.37902C143.012 8.37902 143.736 9.13294 143.736 10.1106C143.736 11.1113 143.012 11.8652 142.078 11.8652C141.134 11.8652 140.41 11.1113 140.41 10.1106ZM141.291 11.3137H141.657V10.2855H142.046L142.687 11.3137H143.083L142.408 10.2596C142.758 10.2206 143.027 10.0404 143.027 9.60803C143.027 9.15054 142.764 8.92598 142.201 8.92598H141.291V11.3137ZM141.657 9.22539H142.143C142.39 9.22539 142.661 9.27577 142.661 9.59199C142.661 9.96931 142.364 9.98542 142.04 9.98542H141.657V9.22539Z" fill="white"></path></svg>