<svg xmlns="http://www.w3.org/2000/svg" width="207" height="41" viewBox="0 0 207 41" fill="none"><g clip-path="url(#clip0_791_361)"><path d="M33.7881 27.4289C33.7875 32.5066 30.8862 35.5428 26.1706 36.5123C24.9209 36.7683 22.7431 36.7914 21.261 36.7926L9.95028 36.7139V40.979L0 32.8066L9.95028 24.6312V28.9201L22.654 29.0151C23.8553 29.0359 24.3622 28.3503 24.3622 27.6345C24.3622 26.3408 23.1207 25.9018 19.5393 24.2148C13.7786 21.5022 9.26283 19.542 9.26283 13.2708C9.26283 8.41375 12.7957 5.02828 17.9809 4.35477C19.0366 4.21868 20.9656 4.17524 22.2351 4.19493C24.8364 4.2372 32.0933 4.35361 32.0933 4.35361V12.1884L20.1633 11.9944C19.1275 11.9776 18.6201 12.6407 18.6201 13.3269C18.6201 14.3288 19.4455 14.7446 22.8171 16.3245C29.8987 19.6427 33.7881 21.383 33.7881 27.4289ZM52.4333 26.7907C52.4333 28.2443 51.1818 29.4297 48.7803 29.4297C46.3089 29.4297 45.1274 28.2368 45.1274 26.7907V4.29164H35.529V27.5529C35.529 32.7104 39.8041 37.557 48.7797 37.557C57.2845 37.557 62.0305 32.7498 62.0305 27.5529V4.29164H52.4333V26.7907ZM91.9615 26.9471C91.9615 33.3984 87.6091 36.8586 81.16 36.8586H65.0734V4.2928H80.6154C87.5534 4.29512 91.0968 8.15431 91.0968 13.2071C91.0968 15.8096 89.8716 18.0033 87.448 19.6254C90.2596 21.1861 91.9615 23.5292 91.9615 26.9471ZM74.5961 17.2273L79.0434 17.2284C80.7269 17.2284 81.4999 16.0123 81.4999 14.3108C81.4999 12.5422 80.7063 11.3945 79.0434 11.3945H74.5961V17.2273ZM82.2157 26.5145C82.2157 24.5687 81.3098 23.4308 79.5109 23.4308H74.5961V29.6139H79.5109C81.3495 29.6122 82.2157 28.3845 82.2157 26.5145Z" fill="#FAFAFA"></path><path d="M124.118 4.29137H133.697V27.2619C133.697 32.5694 129.904 37.4085 121.898 37.4085C118.479 37.4085 115.823 36.3898 113.878 34.8668C111.965 36.3846 109.4 37.4085 106.185 37.4085C97.6241 37.4085 94.125 32.5764 94.125 27.2619V4.29137H103.704V27.0528C103.704 27.98 104.234 29.1509 106.39 29.1509C108.572 29.1509 109.125 28.0378 109.125 27.0528V4.29137H118.698V27.0528C118.698 28.0118 119.209 29.1509 121.4 29.1509C123.592 29.1509 124.118 28.0599 124.118 27.0528V4.29137ZM174.886 17.0932V4.29253H165.387V18.0297C165.387 22.5745 168.514 26.0289 173.765 27.4414V36.8612H183.468V27.4414C188.802 25.9976 191.754 22.5577 191.754 18.0297V12.992C191.754 12.5119 191.995 12.2252 192.55 12.2252L196.81 12.2241V16.3468L206.761 8.17144L196.81 -0.00390625V4.09447H190.21C184.617 4.09447 182.26 7.31086 182.26 11.9594V17.0932C182.26 18.3198 181.421 19.7549 178.573 19.7549C175.726 19.7549 174.886 18.3198 174.886 17.0932ZM163.022 13.5809V36.8624H153.474V27.4269H146.223V36.8624H136.678V13.5809C136.678 7.73418 141.497 3.34105 149.848 3.34105C158.112 3.34105 163.022 7.69888 163.022 13.5809ZM153.476 19.9529L153.474 14.1386C153.474 12.59 152.391 11.4741 149.851 11.4741C147.296 11.4741 146.226 12.6045 146.226 14.1386V19.9529H153.476Z" fill="white"></path><path d="M189.476 34.8625C189.476 34.5654 189.238 34.4021 188.926 34.3957H188.062V36.0861H188.391V35.4561H188.787C189 35.4561 189.128 35.5586 189.128 35.759V36.0861H189.457V35.6437C189.452 35.4619 189.347 35.353 189.195 35.3107V35.2985C189.402 35.1954 189.476 35.0686 189.476 34.8625ZM188.835 35.1828H188.391V34.6743H188.835C188.994 34.6743 189.122 34.753 189.122 34.9279C189.122 35.0982 188.994 35.1828 188.835 35.1828ZM188.714 33.5352C187.751 33.5352 186.965 34.317 186.965 35.2736C186.965 36.2303 187.751 37.0121 188.714 37.0121C189.677 37.0121 190.462 36.2309 190.462 35.2736C190.462 34.3164 189.676 33.5352 188.714 33.5352ZM188.714 36.7092C187.922 36.7092 187.269 36.0612 187.269 35.2736C187.269 34.4861 187.922 33.838 188.714 33.838C189.506 33.838 190.158 34.4866 190.158 35.2736C190.158 36.0607 189.506 36.7092 188.714 36.7092Z" fill="white"></path></g><defs><clipPath id="clip0_791_361"><rect width="207" height="41" fill="white"></rect></clipPath></defs></svg>