<svg xmlns="http://www.w3.org/2000/svg" width="251" height="59" viewBox="0 0 251 59" fill="none"><g clip-path="url(#clip0_791_371)"><mask id="mask0_791_371" style="mask-type:luminance" maskUnits="userSpaceOnUse" x="198" y="0" width="53" height="59"><path d="M251 0.124023H198.419V58.9999H251V0.124023Z" fill="white"></path></mask><g mask="url(#mask0_791_371)"><path d="M235.53 26.8922C236.766 26.64 247.696 21.6758 248.672 21.1174C250.899 19.8428 251.662 17.0197 250.376 14.8128C249.089 12.605 246.241 11.8484 244.015 13.1231C243.038 13.6814 233.237 20.5817 232.399 21.5158C231.439 22.5874 231.273 24.1191 231.983 25.3378C232.694 26.5576 234.115 27.1807 235.53 26.8922Z" fill="#FAFAFA"></path><path d="M248.672 37.883C247.695 37.3256 236.765 32.3604 235.53 32.1092C234.115 31.8198 232.694 32.4429 231.983 33.6626C231.273 34.8823 231.439 36.415 232.399 37.4846C233.237 38.4188 243.039 45.32 244.015 45.8774C246.242 47.153 249.09 46.3955 250.376 44.1886C251.662 41.9808 250.898 39.1577 248.672 37.883Z" fill="#FAFAFA"></path><path d="M224.711 37.8252C223.29 37.8252 222.034 38.7338 221.579 40.0929C221.182 41.2802 220.054 53.1437 220.054 54.2604C220.054 56.8087 222.138 58.8762 224.711 58.8762C227.283 58.8762 229.368 56.8097 229.368 54.2604C229.368 53.1437 228.24 41.2792 227.842 40.0929C227.386 38.7329 226.131 37.8252 224.711 37.8252Z" fill="#FAFAFA"></path><path d="M213.889 32.1092C212.654 32.3604 201.722 37.3246 200.748 37.8829C198.52 39.1586 197.758 41.9817 199.044 44.1885C200.33 46.3964 203.178 47.1529 205.405 45.8773C206.38 45.319 216.182 38.4187 217.021 37.4845C217.981 36.413 218.147 34.8822 217.436 33.6625C216.726 32.4438 215.304 31.8197 213.889 32.1092Z" fill="#FAFAFA"></path><path d="M205.404 13.1231C203.177 11.8484 200.329 12.605 199.044 14.8128C197.757 17.0206 198.521 19.8437 200.747 21.1174C201.724 21.6758 212.654 26.64 213.889 26.8922C215.305 27.1807 216.726 26.5585 217.437 25.3378C218.147 24.1191 217.98 22.5864 217.021 21.5158C216.183 20.5817 206.381 13.6814 205.404 13.1231Z" fill="#FAFAFA"></path><path d="M224.711 0.124023C222.139 0.124023 220.054 2.19017 220.054 4.73999C220.054 5.85637 221.182 17.721 221.579 18.9084C222.034 20.2684 223.29 21.1761 224.711 21.1761C226.131 21.1761 227.386 20.2674 227.842 18.9084C228.24 17.721 229.368 5.85735 229.368 4.73999C229.368 2.19116 227.283 0.124023 224.711 0.124023Z" fill="#FAFAFA"></path></g><mask id="mask1_791_371" style="mask-type:luminance" maskUnits="userSpaceOnUse" x="0" y="12" width="181" height="35"><path d="M180.563 12.8809H0V46.2438H180.563V12.8809Z" fill="white"></path></mask><g mask="url(#mask1_791_371)"><path d="M35.5216 12.8809L31.1799 34.2381L26.3086 12.8809H17.8482L12.9768 34.2381L8.63774 12.8809H0L7.04353 45.5049H17.0954L22.0125 23.8435L26.9295 45.5049H36.761L43.7589 12.8809H35.5216Z" fill="white"></path><path d="M53.1706 40.9809C51.2211 40.9809 50.1596 39.8063 50.1596 38.198C50.1596 36.1099 51.8422 35.2836 53.9683 34.5438C55.0764 34.1346 56.1866 33.7097 56.9366 33.066V36.6751C56.9366 39.4157 55.4743 40.9809 53.1726 40.9809M54.3234 18.8848C48.9631 18.8848 45.1991 20.6697 43.8255 21.9286V28.8888C45.4193 27.4973 48.7855 25.4533 53.2162 25.4533C55.9604 25.4533 56.9793 26.1932 56.9793 27.7161C56.9793 29.0202 55.5626 29.5432 51.619 30.3695C45.6405 31.5872 42.1855 33.7205 42.1855 38.8084C42.1855 43.5057 45.331 46.2463 49.8927 46.2463C53.7133 46.2463 55.9961 44.5056 57.2462 42.1662V45.5064H65.4826V29.4981C65.4826 22.1475 61.5846 18.8848 54.3205 18.8848" fill="white"></path><path d="M77.1163 12.8809H68.5674V45.5049H77.1163V12.8809Z" fill="white"></path><path d="M111.423 18.9727C107.275 18.9727 104.594 21.4199 103.193 24.6807C102.441 21.1874 99.9431 18.9727 96.4509 18.9727C92.4964 18.9727 89.9189 21.2374 88.6123 24.4187V19.7115H80.1973V45.507H88.7462V31.1972C88.7462 27.6745 89.9427 25.6737 92.5102 25.6737C94.5907 25.6737 95.301 27.0651 95.301 29.2406V45.51H103.85V31.1992C103.85 27.6774 105.045 25.6757 107.613 25.6757C109.694 25.6757 110.404 27.0671 110.404 29.2426V45.5129H118.953V28.0631C118.953 22.6259 116.34 18.9727 111.423 18.9727Z" fill="white"></path><path d="M131.797 40.9809C129.849 40.9809 128.786 39.8063 128.786 38.198C128.786 36.1099 130.47 35.2836 132.596 34.5438C133.704 34.1346 134.814 33.7097 135.564 33.066V36.6751C135.564 39.4157 134.102 40.9809 131.797 40.9809ZM132.948 18.8848C127.588 18.8848 123.824 20.6697 122.45 21.9286V28.8888C124.044 27.4973 127.41 25.4533 131.841 25.4533C134.585 25.4533 135.604 26.1932 135.604 27.7161C135.604 29.0202 134.187 29.5432 130.243 30.3695C124.265 31.5872 120.81 33.7205 120.81 38.8084C120.81 43.5057 123.956 46.2463 128.517 46.2463C132.338 46.2463 134.621 44.5056 135.871 42.1662V45.5064H144.107V29.4981C144.107 22.1475 140.209 18.8848 132.945 18.8848" fill="white"></path><path d="M155.404 26.9979V19.711H147.032V45.5065H155.581V34.5438C155.581 29.4982 158.77 28.1489 161.826 28.1489C162.845 28.1489 163.819 28.2785 164.262 28.4109V19.5364C159.452 19.3097 156.531 22.3251 155.404 26.9979Z" fill="white"></path><path d="M180.563 26.2359V19.7115H175.116V14.708H166.567V36.8914C166.567 43.1127 170.153 46.027 175.868 46.027C178.527 46.027 179.944 45.504 180.563 45.1135V38.6312C180.076 38.9806 179.277 39.2416 178.258 39.2416C176.355 39.2838 175.113 38.4575 175.113 35.7198V26.2359H180.56H180.563Z" fill="white"></path></g></g><defs><clipPath id="clip0_791_371"><rect width="251" height="59" fill="white"></rect></clipPath></defs></svg>